<svg width="549" height="139" viewBox="0 0 549 139" fill="none" xmlns="http://www.w3.org/2000/svg">
<path d="M507.188 114.939C499.531 114.939 492.604 113.253 486.406 109.881C480.254 106.463 475.446 101.792 471.982 95.8672C468.519 89.8971 466.787 83.2435 466.787 75.9062C466.787 68.1589 468.564 61.2546 472.119 55.1934C475.719 49.1322 480.641 44.4609 486.885 41.1797C493.174 37.8984 500.283 36.2578 508.213 36.2578C515.824 36.2578 522.682 37.9668 528.789 41.3848C534.941 44.8027 539.727 49.4967 543.145 55.4668C546.562 61.3913 548.271 67.9993 548.271 75.291C548.271 87.0944 544.421 96.6647 536.719 104.002C529.017 111.294 519.173 114.939 507.188 114.939ZM498.369 53.0742C498.369 57.4948 498.688 62.6673 499.326 68.5918C500.01 74.4707 500.921 80.2812 502.061 86.0234C503.2 91.7656 504.704 96.6191 506.572 100.584C508.441 104.549 510.423 106.531 512.52 106.531C515.163 106.531 516.484 104.116 516.484 99.2852C516.484 94.6823 516.165 89.373 515.527 83.3574C514.889 77.2962 514.001 71.349 512.861 65.5156C511.722 59.6367 510.218 54.6921 508.35 50.6816C506.527 46.6712 504.567 44.666 502.471 44.666C499.736 44.666 498.369 47.4688 498.369 53.0742Z" fill="#007BFF"/>
<path d="M438.896 115.076C429.873 115.076 422.923 113.139 418.047 109.266C413.171 105.392 410.732 100.151 410.732 93.543V49.998H407.109C403.555 49.998 401.777 48.8815 401.777 46.6484C401.777 45.418 402.393 44.4382 403.623 43.709C404.899 42.9342 406.471 42.3646 408.34 42C410.208 41.5898 412.738 40.8151 415.928 39.6758C419.118 38.4909 422.148 37.0326 425.02 35.3008C428.301 33.3411 431.126 31.3359 433.496 29.2852C435.911 27.1888 437.575 25.5254 438.486 24.2949C439.443 23.0189 440.355 21.9935 441.221 21.2188C442.132 20.3984 443.021 19.9883 443.887 19.9883C445.026 19.9883 445.801 20.3301 446.211 21.0137C446.667 21.6517 446.895 22.7682 446.895 24.3633V39.334L460.703 39.0605C462.344 39.0605 463.438 39.2884 463.984 39.7441C464.531 40.1543 464.805 41.1341 464.805 42.6836C464.805 44.2786 464.668 45.4863 464.395 46.3066C464.167 47.127 463.574 47.8561 462.617 48.4941C461.66 49.0866 460.27 49.4967 458.447 49.7246C456.67 49.9069 454.163 49.998 450.928 49.998H446.895V92.5176C446.895 94.3405 447.487 95.7305 448.672 96.6875C449.902 97.6445 451.589 98.123 453.73 98.123C455.553 98.123 458.174 97.485 461.592 96.209C463.232 95.6621 464.349 95.9811 464.941 97.166C465.625 98.8978 464.167 101.564 460.566 105.164C457.741 108.126 454.3 110.519 450.244 112.342C446.188 114.165 442.406 115.076 438.896 115.076Z" fill="#007BFF"/>
<path d="M368.76 112C364.202 112 361.172 111.727 359.668 111.18C358.164 110.633 357.412 109.562 357.412 107.967C357.412 107.101 357.572 106.44 357.891 105.984C358.21 105.483 358.848 105.005 359.805 104.549C361.263 103.774 362.22 102.999 362.676 102.225C363.177 101.404 363.428 100.219 363.428 98.6699L363.291 63.3965C363.291 60.252 362.995 58.2695 362.402 57.4492C361.855 56.5833 360.625 56.1504 358.711 56.1504C357.708 56.1504 357.002 55.9225 356.592 55.4668C356.227 55.0111 356.045 54.2591 356.045 53.2109C356.045 51.0234 357.275 49.3145 359.736 48.084C362.197 46.8079 368.281 44.5977 377.988 41.4531C379.629 40.9062 381.361 40.3138 383.184 39.6758C385.007 38.9922 386.351 38.4909 387.217 38.1719C388.128 37.8529 389.062 37.5339 390.02 37.2148C390.977 36.8958 391.751 36.6908 392.344 36.5996C392.936 36.4629 393.483 36.3945 393.984 36.3945C394.85 36.3945 395.534 36.4857 396.035 36.668C396.582 36.8503 396.992 37.0326 397.266 37.2148C397.585 37.3971 397.79 37.8529 397.881 38.582C398.018 39.2656 398.086 39.8353 398.086 40.291C398.132 40.7012 398.154 41.5443 398.154 42.8203C398.154 48.6992 398.109 58.1556 398.018 71.1895C397.926 84.1777 397.881 93.4974 397.881 99.1484C397.881 100.971 398.132 102.27 398.633 103.045C399.18 103.774 400.137 104.344 401.504 104.754C403.008 105.164 403.76 106.144 403.76 107.693C403.76 109.425 403.19 110.587 402.051 111.18C400.911 111.727 398.587 112 395.078 112H368.76ZM361.924 17.6641C362.061 12.651 363.815 8.59505 367.188 5.49609C370.56 2.35156 374.821 0.847656 379.971 0.984375C385.758 1.12109 390.452 3.01237 394.053 6.6582C397.699 10.2585 399.453 14.8158 399.316 20.3301C399.18 25.0697 397.311 28.9206 393.711 31.8828C390.111 34.8451 385.576 36.2578 380.107 36.1211C374.639 35.9844 370.195 34.207 366.777 30.7891C363.405 27.3255 361.787 22.9505 361.924 17.6641Z" fill="#007BFF"/>
<path d="M318.037 112C313.48 112 310.449 111.727 308.945 111.18C307.441 110.633 306.689 109.562 306.689 107.967C306.689 107.101 306.849 106.44 307.168 105.984C307.487 105.483 308.125 105.005 309.082 104.549C310.54 103.774 311.52 102.999 312.021 102.225C312.523 101.404 312.773 100.219 312.773 98.6699L312.295 38.6504C312.295 35.4147 311.953 33.25 311.27 32.1562C310.632 31.0625 309.31 30.5156 307.305 30.5156C306.029 30.5156 305.14 30.3333 304.639 29.9688C304.137 29.5586 303.887 28.8978 303.887 27.9863C303.887 26.0723 304.798 24.5684 306.621 23.4746C308.49 22.3809 313.047 20.444 320.293 17.6641C323.164 16.5703 325.443 15.6816 327.129 14.998C328.724 14.4056 330.456 13.7676 332.324 13.084C334.193 12.4004 335.56 11.8991 336.426 11.5801C337.292 11.2611 338.203 10.9421 339.16 10.623C340.117 10.304 340.892 10.099 341.484 10.0078C342.077 9.87109 342.624 9.80273 343.125 9.80273C343.991 9.80273 344.674 9.89388 345.176 10.0762C345.723 10.2585 346.133 10.4408 346.406 10.623C346.725 10.8053 346.93 11.2611 347.021 11.9902C347.158 12.6738 347.227 13.2435 347.227 13.6992C347.272 14.1094 347.295 14.9525 347.295 16.2285C346.885 22.9277 346.657 30.8346 346.611 39.9492C346.611 49.0182 346.702 59.6595 346.885 71.873C347.067 84.041 347.158 93.1328 347.158 99.1484C347.158 100.971 347.409 102.27 347.91 103.045C348.457 103.774 349.437 104.344 350.85 104.754C352.308 105.118 353.037 106.098 353.037 107.693C353.037 109.425 352.467 110.587 351.328 111.18C350.189 111.727 347.865 112 344.355 112H318.037Z" fill="#007BFF"/>
<path d="M267.314 115.213C261.572 115.213 256.126 114.142 250.977 112C245.872 109.858 241.543 107.033 237.988 103.523C234.479 99.9688 231.699 95.89 229.648 91.2871C227.598 86.6842 226.572 81.9674 226.572 77.1367C226.572 68.9792 228.395 61.8014 232.041 55.6035C235.732 49.36 240.7 44.6204 246.943 41.3848C253.187 38.1491 260.205 36.5312 267.998 36.5312C276.885 36.5312 284.154 38.7871 289.805 43.2988C295.501 47.765 299.193 54.2363 300.879 62.7129C301.38 65.2194 301.357 67.0879 300.811 68.3184C300.264 69.5033 298.988 70.4375 296.982 71.1211C293.018 72.5339 287.321 73.901 279.893 75.2227C272.464 76.4987 265.127 77.4102 257.881 77.957C258.883 84.3372 260.866 88.8034 263.828 91.3555C266.79 93.9076 271.439 95.1836 277.773 95.1836C283.698 95.1836 288.984 94.0215 293.633 91.6973C296.732 90.2389 298.6 90.3301 299.238 91.9707C299.694 93.2923 298.851 95.3887 296.709 98.2598C289.189 109.562 279.391 115.213 267.314 115.213ZM256.924 58.6797C256.924 63.0547 256.969 66.1764 257.061 68.0449C259.795 67.9082 262.415 67.6348 264.922 67.2246C267.52 66.86 269.092 66.2904 269.639 65.5156C270.231 64.7409 270.527 63.1914 270.527 60.8672C270.527 55.8997 269.844 52.0033 268.477 49.1777C267.155 46.3522 265.309 44.9395 262.939 44.9395C261.071 44.9395 259.59 46.1699 258.496 48.6309C257.448 51.0918 256.924 54.4414 256.924 58.6797Z" fill="#007BFF"/>
<path d="M190.684 114.803C185.124 114.803 180.133 114.324 175.713 113.367C171.338 112.41 167.852 111.157 165.254 109.607C162.702 108.058 160.742 106.395 159.375 104.617C158.053 102.84 157.393 101.062 157.393 99.2852C157.393 96.8242 158.304 94.7051 160.127 92.9277C161.95 91.1048 164.115 90.1934 166.621 90.1934C168.353 90.1934 169.88 90.6491 171.201 91.5605C172.568 92.4264 174.346 94.0671 176.533 96.4824C182.458 102.817 188.291 105.984 194.033 105.984C195.811 105.984 197.406 105.574 198.818 104.754C200.231 103.888 200.938 102.794 200.938 101.473C200.938 100.151 200.505 98.9889 199.639 97.9863C198.818 96.9837 197.542 96.0951 195.811 95.3203C194.124 94.5 192.438 93.8164 190.752 93.2695C189.066 92.6771 186.924 91.9707 184.326 91.1504C181.774 90.3301 179.655 89.5781 177.969 88.8945C171.042 86.069 165.869 82.5827 162.451 78.4355C159.079 74.2884 157.393 69.6628 157.393 64.5586C157.393 56.1732 160.765 49.2917 167.51 43.9141C174.3 38.5365 182.913 35.8477 193.35 35.8477C201.234 35.8477 207.728 37.4199 212.832 40.5645C217.936 43.6634 220.488 47.2637 220.488 51.3652C220.488 53.2793 219.714 54.9427 218.164 56.3555C216.66 57.7227 214.746 58.4062 212.422 58.4062C210.098 58.4062 207.956 57.8594 205.996 56.7656C204.082 55.6719 202.008 54.0085 199.775 51.7754C199.639 51.6387 199.115 51.1602 198.203 50.3398C197.337 49.5195 196.722 48.9727 196.357 48.6992C196.038 48.3802 195.423 47.9017 194.512 47.2637C193.646 46.5801 192.894 46.1016 192.256 45.8281C191.663 45.5547 190.889 45.304 189.932 45.0762C189.02 44.8027 188.109 44.666 187.197 44.666C184.645 44.666 182.594 45.304 181.045 46.5801C179.541 47.8561 178.789 49.1777 178.789 50.5449C178.789 51.5475 178.994 52.3906 179.404 53.0742C179.86 53.7122 180.749 54.3275 182.07 54.9199C183.392 55.5124 184.714 56.0137 186.035 56.4238C187.357 56.7884 189.476 57.4036 192.393 58.2695C195.355 59.1354 198.112 60.0013 200.664 60.8672C208.092 63.3737 213.698 66.86 217.48 71.3262C221.263 75.7467 223.154 80.8965 223.154 86.7754C223.154 94.3405 219.941 100.903 213.516 106.463C207.135 112.023 199.525 114.803 190.684 114.803Z" fill="#007BFF"/>
<path d="M112.07 114.939C104.414 114.939 97.487 113.253 91.2891 109.881C85.1367 106.463 80.3288 101.792 76.8652 95.8672C73.4017 89.8971 71.6699 83.2435 71.6699 75.9062C71.6699 68.1589 73.4473 61.2546 77.002 55.1934C80.6022 49.1322 85.5241 44.4609 91.7676 41.1797C98.0566 37.8984 105.166 36.2578 113.096 36.2578C120.706 36.2578 127.565 37.9668 133.672 41.3848C139.824 44.8027 144.609 49.4967 148.027 55.4668C151.445 61.3913 153.154 67.9993 153.154 75.291C153.154 87.0944 149.303 96.6647 141.602 104.002C133.9 111.294 124.056 114.939 112.07 114.939ZM103.252 53.0742C103.252 57.4948 103.571 62.6673 104.209 68.5918C104.893 74.4707 105.804 80.2812 106.943 86.0234C108.083 91.7656 109.587 96.6191 111.455 100.584C113.324 104.549 115.306 106.531 117.402 106.531C120.046 106.531 121.367 104.116 121.367 99.2852C121.367 94.6823 121.048 89.373 120.41 83.3574C119.772 77.2962 118.883 71.349 117.744 65.5156C116.605 59.6367 115.101 54.6921 113.232 50.6816C111.41 46.6712 109.45 44.666 107.354 44.666C104.619 44.666 103.252 47.4688 103.252 53.0742Z" fill="#007BFF"/>
<path d="M25.5273 138.592C17.1875 138.592 10.8757 136.997 6.5918 133.807C2.30794 130.617 0.166016 126.287 0.166016 120.818C0.166016 117.446 1.39648 114.552 3.85742 112.137C6.27279 109.721 9.46289 108.514 13.4277 108.514C15.5241 108.514 17.4609 108.992 19.2383 109.949C21.0612 110.861 22.5651 112 23.75 113.367C24.9805 114.78 26.1654 116.307 27.3047 117.947C28.444 119.588 29.4238 121.092 30.2441 122.459C31.0645 123.872 31.9759 125.034 32.9785 125.945C33.9811 126.902 34.9837 127.381 35.9863 127.381C38.0371 127.381 39.0625 125.854 39.0625 122.801C39.0625 121.16 38.5384 119.474 37.4902 117.742C36.4876 116.056 35.2344 114.438 33.7305 112.889C32.2721 111.385 30.8138 109.812 29.3555 108.172C27.8971 106.531 26.6439 104.64 25.5957 102.498C24.5931 100.356 24.0918 98.1458 24.0918 95.8672V35.7109C24.0918 33.1589 23.7272 31.3359 22.998 30.2422C22.2689 29.1484 21.0384 28.3965 19.3066 27.9863C17.8027 27.6217 16.8457 27.3027 16.4355 27.0293C16.0254 26.7103 15.8203 26.0495 15.8203 25.0469C15.8203 23.5885 16.8229 22.4264 18.8281 21.5605C20.8333 20.6491 23.5221 20.1934 26.8945 20.1934H57.5879C60.9147 20.1934 63.5807 20.6491 65.5859 21.5605C67.5911 22.4264 68.5938 23.5885 68.5938 25.0469C68.5938 26.0495 68.3887 26.7103 67.9785 27.0293C67.5684 27.3027 66.6113 27.6217 65.1074 27.9863C63.3757 28.3965 62.1452 29.1484 61.416 30.2422C60.7324 31.2904 60.3906 33.1133 60.3906 35.7109L60.6641 85.1348C60.7096 100.994 57.4056 113.868 50.752 123.758C44.0983 133.647 35.6901 138.592 25.5273 138.592Z" fill="#007BFF"/>
</svg>
